<svg id="Capa_1" enable-background="new 0 0 512 512" height="512" viewBox="0 0 512 512" width="512" xmlns="http://www.w3.org/2000/svg"><g><path d="m91 481h210c49.626 0 90-40.374 90-90 0-38.605-24.81-72.626-60.474-85.014-.159-1.674-.358-3.336-.595-4.986h92.069c49.626 0 90-40.374 90-90 0-38.608-24.81-72.63-60.479-85.016-5.107-53.216-50.483-94.984-105.521-94.984-28.196 0-54.895 11.45-74.662 31.726-5.17-1.147-10.3-1.726-15.338-1.726-37.938 0-69.386 28.31-74.325 64.916-35.773 12.33-60.675 46.406-60.675 85.084 0 10.502 1.855 20.87 5.386 30.629-33.516 4.309-60.181 30.813-64.707 64.262-36.356 12.369-61.679 46.479-61.679 85.109 0 49.55 41.067 90 91 90zm108.105-328.798c7.332-1.473 12.97-8.282 11.9-16.938.394-24.476 20.428-44.264 44.995-44.264 4.865 0 9.827.937 15.169 2.864 6.013 2.168 12.74.288 16.759-4.685 14.465-17.908 35.632-28.179 58.072-28.179 41.756 0 76.645 33.652 75.853 76.209-.139 7.252 4.932 13.564 12.042 14.993 27.874 5.6 48.105 30.328 48.105 58.798 0 33.084-26.916 60-60 60h-101.142c-16.883-35.443-53.056-60-94.858-60-25.555 0-49.88 9.406-68.93 26.263-3.953-8.13-6.07-17.117-6.07-26.263 0-28.47 20.231-53.198 48.105-58.798zm-120 180c7.332-1.473 12.97-8.282 11.9-16.938.394-24.476 20.428-44.264 44.995-44.264 4.865 0 9.827.937 15.169 2.864 6.012 2.169 12.741.289 16.759-4.685 14.465-17.908 35.632-28.179 58.072-28.179 41.098 0 74.581 33.23 74.996 74.232-1.068 8.684 4.562 15.496 11.898 16.97 27.875 5.6 48.106 30.328 48.106 58.798 0 33.084-26.916 60-60 60h-210c-33.636 0-61-26.916-61-60 0-28.354 20.651-53.082 49.105-58.798z"/></g></svg>