<svg width="40" height="40" viewBox="0 0 40 40" fill="none" xmlns="http://www.w3.org/2000/svg">
<g clip-path="url(#clip0)">
<path d="M27.0899 12.91C25.291 11.1111 22.7513 9.94708 20 9.94708C17.2487 9.94708 14.709 11.0582 12.91 12.91C11.1111 14.709 9.94708 17.2487 9.94708 20C9.94708 22.7513 11.1111 25.291 12.91 27.0899C14.709 28.8889 17.2487 30.0529 20 30.0529C22.7513 30.0529 25.291 28.9418 27.0899 27.0899C28.8889 25.291 30.0529 22.7513 30.0529 20C30.0529 17.2487 28.9418 14.709 27.0899 12.91ZM25.1852 25.1852C23.8624 26.5079 22.0106 27.3016 20 27.3016C17.9894 27.3016 16.1376 26.5079 14.8148 25.1852C13.4921 23.8624 12.6984 22.0106 12.6984 20C12.6984 17.9894 13.4921 16.1376 14.8148 14.8148C16.1376 13.4921 17.9894 12.6984 20 12.6984C22.0106 12.6984 23.8624 13.4921 25.1852 14.8148C26.5079 16.1376 27.3016 17.9894 27.3016 20C27.3016 22.0106 26.5079 23.8624 25.1852 25.1852Z" fill="white"/>
<path d="M38.6244 18.6243H34.5503C33.8095 18.6243 33.1746 19.2592 33.1746 20C33.1746 20.7407 33.8095 21.3757 34.5503 21.3757H38.6244C39.3651 21.3757 40 20.7407 40 20C40 19.2592 39.3651 18.6243 38.6244 18.6243Z" fill="white"/>
<path d="M20 33.1746C19.2593 33.1746 18.6244 33.8095 18.6244 34.5503V38.6244C18.6244 39.3651 19.2593 40 20 40C20.7408 40 21.3757 39.3651 21.3757 38.6244V34.5503C21.3757 33.8095 20.7408 33.1746 20 33.1746Z" fill="white"/>
<path d="M34.127 32.2222L31.217 29.3122C30.7408 28.7831 29.8413 28.7831 29.3122 29.3122C28.7831 29.8413 28.7831 30.6878 29.3122 31.2169L32.2222 34.127C32.7513 34.6561 33.5979 34.6561 34.127 34.127C34.6561 33.5979 34.6561 32.7513 34.127 32.2222Z" fill="white"/>
<path d="M20 0C19.2593 0 18.6244 0.63492 18.6244 1.37566V5.44973C18.6244 6.19047 19.2593 6.82539 20 6.82539C20.7408 6.82539 21.3757 6.19047 21.3757 5.44973V1.37566C21.3757 0.63492 20.7408 0 20 0Z" fill="white"/>
<path d="M34.1799 5.87302C33.6508 5.34392 32.8042 5.34392 32.2751 5.87302L29.3651 8.78307C28.836 9.31218 28.836 10.1587 29.3651 10.6878C29.8413 11.2169 30.7407 11.2169 31.2698 10.6878L34.1799 7.77778C34.709 7.24868 34.709 6.40212 34.1799 5.87302Z" fill="white"/>
<path d="M5.44973 18.6243H1.37566C0.63492 18.6243 0 19.2592 0 20C0 20.7407 0.58201 21.3757 1.37566 21.3757H5.44973C6.19047 21.3757 6.82539 20.7407 6.82539 20C6.82539 19.2592 6.19047 18.6243 5.44973 18.6243Z" fill="white"/>
<path d="M10.6349 29.3122C10.1587 28.7831 9.25926 28.7831 8.73016 29.3122L5.8201 32.2222C5.291 32.7513 5.291 33.5979 5.8201 34.127C6.3492 34.6561 7.19577 34.6561 7.72487 34.127L10.6349 31.2169C11.164 30.6878 11.164 29.8413 10.6349 29.3122Z" fill="white"/>
<path d="M10.6349 8.78307L7.72487 5.87302C7.19577 5.34392 6.3492 5.34392 5.8201 5.87302C5.291 6.40212 5.291 7.24868 5.8201 7.77778L8.73016 10.6878C9.25926 11.2169 10.1058 11.2169 10.6349 10.6878C11.164 10.1587 11.164 9.31218 10.6349 8.78307Z" fill="white"/>
</g>
<defs>
<clipPath id="clip0">
<rect width="40" height="40" fill="white"/>
</clipPath>
</defs>
</svg>
