<svg width="40" height="40" viewBox="0 0 40 40" fill="none" xmlns="http://www.w3.org/2000/svg">
<g clip-path="url(#clip0)">
<path d="M7.10938 37.5781H23.5156C27.3927 37.5781 30.5469 34.4239 30.5469 30.5469C30.5469 27.5309 28.6086 24.873 25.8223 23.9052C25.8099 23.7744 25.7944 23.6445 25.7759 23.5156H32.9688C36.8458 23.5156 40 20.3614 40 16.4844C40 13.4681 38.0617 10.8102 35.2751 9.8425C34.8761 5.685 31.3311 2.42188 27.0312 2.42188C24.8284 2.42188 22.7426 3.31641 21.1983 4.90047C20.7944 4.81086 20.3936 4.76562 20 4.76562C17.0361 4.76562 14.5792 6.97734 14.1934 9.83719C11.3986 10.8005 9.45312 13.4627 9.45312 16.4844C9.45312 17.3048 9.59805 18.1148 9.87391 18.8773C7.25547 19.2139 5.17227 21.2845 4.81867 23.8977C1.97836 24.8641 0 27.5289 0 30.5469C0 34.418 3.20836 37.5781 7.10938 37.5781ZM15.5551 11.8908C16.1279 11.7757 16.5684 11.2438 16.4848 10.5675C16.5155 8.65531 18.0807 7.10938 20 7.10938C20.3801 7.10938 20.7677 7.18258 21.1851 7.33313C21.6548 7.5025 22.1804 7.35563 22.4944 6.96711C23.6245 5.56805 25.2781 4.76562 27.0312 4.76562C30.2934 4.76562 33.0191 7.39469 32.9573 10.7195C32.9464 11.286 33.3426 11.7791 33.898 11.8908C36.0757 12.3283 37.6562 14.2602 37.6562 16.4844C37.6562 19.0691 35.5534 21.1719 32.9688 21.1719H25.067C23.748 18.4029 20.922 16.4844 17.6562 16.4844C15.6598 16.4844 13.7594 17.2192 12.2711 18.5362C11.9623 17.901 11.7969 17.1989 11.7969 16.4844C11.7969 14.2602 13.3774 12.3283 15.5551 11.8908ZM6.18008 25.9533C6.75289 25.8382 7.19336 25.3063 7.10977 24.63C7.14055 22.7178 8.7057 21.1719 10.625 21.1719C11.0051 21.1719 11.3927 21.2451 11.8101 21.3956C12.2798 21.5651 12.8055 21.4182 13.1194 21.0296C14.2495 19.6305 15.9031 18.8281 17.6562 18.8281C20.867 18.8281 23.4829 21.4242 23.5153 24.6275C23.4319 25.3059 23.8717 25.8381 24.4448 25.9533C26.6226 26.3908 28.2031 28.3227 28.2031 30.5469C28.2031 33.1316 26.1003 35.2344 23.5156 35.2344H7.10938C4.48156 35.2344 2.34375 33.1316 2.34375 30.5469C2.34375 28.3317 3.95711 26.3998 6.18008 25.9533Z" fill="white"/>
</g>
<defs>
<clipPath id="clip0">
<rect width="40" height="40" fill="white"/>
</clipPath>
</defs>
</svg>
