<svg width="40" height="40" viewBox="0 0 40 40" fill="none" xmlns="http://www.w3.org/2000/svg">
<path d="M33.0994 26.2766H8.7721C3.95677 26.2766 0.0392151 22.3591 0.0392151 17.5438C0.0392151 13.3426 2.99772 9.86092 6.90709 9.01079C7.08978 4.0112 11.214 0 16.2574 0C20.0422 0 23.237 2.22564 24.7268 5.38001C29.5798 3.93721 34.4221 7.63668 34.3461 12.6671C37.5365 13.255 39.961 16.0572 39.961 19.4151C39.961 23.1985 36.8829 26.2766 33.0994 26.2766ZM16.2574 2.49511C12.2468 2.49511 9.06622 5.93977 9.42364 9.97148C9.48477 10.6616 8.97093 11.2713 8.27815 11.3253C5.05727 11.577 2.53433 14.3085 2.53433 17.5438C2.53433 20.9833 5.33259 23.7815 8.7721 23.7815H33.0994C35.5071 23.7815 37.4659 21.8227 37.4659 19.4151C37.4659 17.1491 35.6924 15.0486 32.9744 15.0486C32.1872 15.0486 31.5947 14.3264 31.7518 13.5528C32.5848 9.4518 28.2883 6.21322 24.5883 8.11176C23.8965 8.46669 23.0505 8.10857 22.8248 7.36354C21.9563 4.49713 19.2556 2.49511 16.2574 2.49511Z" fill="white"/>
<path d="M24.3655 35.6335C23.4487 35.6335 22.8332 34.6626 23.2506 33.8278L25.7457 28.8376C26.0539 28.2213 26.8033 27.9715 27.4195 28.2796C28.0358 28.5877 28.2855 29.3371 27.9774 29.9533L25.4823 34.9436C25.2638 35.3808 24.8231 35.6335 24.3655 35.6335Z" fill="white"/>
<path d="M35.5936 35.6335C34.6768 35.6335 34.0612 34.6626 34.4786 33.8278L36.9737 28.8376C37.2819 28.2213 38.0313 27.9715 38.6475 28.2796C39.2638 28.5877 39.5135 29.3371 39.2055 29.9533L36.7104 34.9436C36.4918 35.3808 36.0511 35.6335 35.5936 35.6335Z" fill="white"/>
<path d="M13.1376 35.6335C12.2208 35.6335 11.6052 34.6626 12.0226 33.8278L14.5177 28.8376C14.8258 28.2213 15.5754 27.9715 16.1915 28.2796C16.8078 28.5877 17.0575 29.3371 16.7495 29.9533L14.2544 34.9436C14.0358 35.3808 13.5951 35.6335 13.1376 35.6335Z" fill="white"/>
<path d="M1.90953 35.6335C0.992734 35.6335 0.377221 34.6626 0.794606 33.8278L3.28972 28.8376C3.59779 28.2213 4.34733 27.9715 4.96347 28.2796C5.57976 28.5877 5.82951 29.3371 5.52144 29.9533L3.02633 34.9436C2.80777 35.3808 2.36707 35.6335 1.90953 35.6335Z" fill="white"/>
<path d="M16.8802 40C15.9634 40 15.3479 39.029 15.7653 38.1942L18.2604 33.204C18.5685 32.5877 19.3179 32.338 19.9341 32.646C20.5504 32.9542 20.8002 33.7036 20.4921 34.3198L17.997 39.31C17.7784 39.7473 17.3377 40 16.8802 40Z" fill="white"/>
<path d="M28.1082 40C27.1914 40 26.5759 39.029 26.9933 38.1942L29.4884 33.204C29.7966 32.5877 30.5459 32.338 31.1622 32.646C31.7785 32.9542 32.0282 33.7036 31.7201 34.3198L29.225 39.31C29.0065 39.7473 28.5658 40 28.1082 40Z" fill="white"/>
<path d="M5.65221 40C4.73541 40 4.1199 39.029 4.53728 38.1942L7.03239 33.204C7.34054 32.5877 8.08993 32.338 8.70615 32.646C9.32244 32.9542 9.57218 33.7036 9.26412 34.3198L6.769 39.31C6.55045 39.7473 6.10975 40 5.65221 40Z" fill="white"/>
</svg>
