<svg width="40" height="40" viewBox="0 0 40 40" fill="none" xmlns="http://www.w3.org/2000/svg">
<path d="M35.2745 10.2602C35.2999 9.98703 35.3125 9.71914 35.3125 9.45312C35.3125 4.28086 31.0517 0 25.8594 0C22.2377 0 19.1343 2.06141 17.5844 5.01711C16.8417 4.79805 16.0812 4.6875 15.3125 4.6875C11.183 4.6875 7.75641 7.78359 7.19117 11.7973C3.2657 11.7513 0 14.9173 0 18.8281C0 22.6969 3.20586 25.8594 7.10938 25.8594H31.7969C36.3201 25.8594 40 22.1795 40 17.6562C40 14.4584 38.1368 11.5975 35.2745 10.2602ZM31.7969 23.5156H7.10938C4.48156 23.5156 2.34375 21.4128 2.34375 18.8281C2.34375 16.2434 4.48156 14.1406 7.10938 14.1406C7.42828 14.1406 7.74734 14.173 8.05766 14.2366C8.8107 14.3913 9.56344 13.7826 9.45344 12.9084C9.48555 9.66219 12.1016 7.03125 15.3125 7.03125C16.1309 7.03125 16.9409 7.21023 17.7198 7.56312C18.0151 7.69688 18.3524 7.70234 18.6518 7.57836C18.9513 7.45437 19.1859 7.21195 19.3001 6.90859C20.3284 4.1782 22.9642 2.34375 25.8594 2.34375C29.713 2.34375 32.9688 5.59945 32.9688 9.45312C32.9688 9.875 32.9245 10.3109 32.8332 10.7859C32.722 11.3645 33.0578 11.9358 33.6175 12.12C36.0332 12.9154 37.6562 15.1402 37.6562 17.6562C37.6562 20.8871 35.0277 23.5156 31.7969 23.5156Z" fill="white"/>
<path d="M14.9257 36.9922C15.2509 37.5555 15.9686 37.7432 16.5264 37.4211L18.8282 36.0923V38.8281C18.8282 39.4753 19.3528 40 20 40C20.6472 40 21.1719 39.4753 21.1719 38.8281V36.0923L23.4736 37.4212C24.0322 37.7437 24.7497 37.5547 25.0744 36.9923C25.3981 36.4318 25.206 35.7151 24.6455 35.3915L22.3438 34.0625L24.6454 32.7336C25.206 32.41 25.398 31.6933 25.0743 31.1328C24.7507 30.5723 24.034 30.3804 23.4735 30.7039L21.1719 32.0327V29.375C21.1719 28.7278 20.6472 28.2031 20 28.2031C19.3528 28.2031 18.8282 28.7278 18.8282 29.375V32.0327L16.5265 30.7038C15.966 30.3802 15.2492 30.5723 14.9257 31.1327C14.6021 31.6932 14.7942 32.4099 15.3546 32.7335L17.6563 34.0625L15.3546 35.3914C14.7941 35.715 14.6021 36.4317 14.9257 36.9922Z" fill="white"/>
<path d="M4.76563 36.4062C4.76563 37.0534 5.29031 37.5781 5.9375 37.5781C6.58469 37.5781 7.10938 37.0534 7.10938 36.4062V34.9204L8.39617 35.6634C8.95477 35.9859 9.67235 35.7968 9.99695 35.2345C10.3205 34.674 10.1285 33.9573 9.56805 33.6337L8.28125 32.8906L9.56805 32.1477C10.1285 31.8241 10.3205 31.1073 9.99695 30.5469C9.67336 29.9864 8.95672 29.7944 8.39617 30.118L7.10938 30.8609V29.375C7.10938 28.7278 6.58469 28.2031 5.9375 28.2031C5.29031 28.2031 4.76563 28.7278 4.76563 29.375V30.8609L3.47883 30.1179C2.91828 29.7943 2.20156 29.9863 1.87805 30.5468C1.55446 31.1073 1.74649 31.824 2.30696 32.1476L3.59375 32.8906L2.30696 33.6336C1.74649 33.9572 1.55446 34.6739 1.87805 35.2344C2.20328 35.7977 2.92102 35.9854 3.47883 35.6633L4.76563 34.9204V36.4062Z" fill="white"/>
<path d="M38.2001 30.5469C37.8764 29.9863 37.1597 29.7944 36.5993 30.118L35.3125 30.8609V29.375C35.3125 28.7278 34.7878 28.2031 34.1406 28.2031C33.4935 28.2031 32.9688 28.7278 32.9688 29.375V30.8609L31.682 30.1179C31.1215 29.7942 30.4047 29.9862 30.0812 30.5468C29.7575 31.1073 29.9496 31.824 30.5101 32.1476L31.7969 32.8906L30.5101 33.6336C29.9496 33.9572 29.7575 34.6739 30.0812 35.2344C30.4058 35.7966 31.1231 35.9859 31.682 35.6633L32.9688 34.9203V36.4062C32.9688 37.0534 33.4935 37.5781 34.1406 37.5781C34.7878 37.5781 35.3125 37.0534 35.3125 36.4062V34.9204L36.5993 35.6634C37.1578 35.9859 37.8753 35.7969 38.2001 35.2345C38.5238 34.674 38.3317 33.9573 37.7712 33.6337L36.4844 32.8906L37.7712 32.1477C38.3317 31.8241 38.5238 31.1073 38.2001 30.5469Z" fill="white"/>
</svg>
