<svg width="40" height="40" viewBox="0 0 40 40" fill="none" xmlns="http://www.w3.org/2000/svg">
<g clip-path="url(#clip0)">
<path d="M36.7756 14.0787C36.689 8.94488 32.4528 4.79528 27.2638 4.79528C26.4843 4.79528 25.7126 4.88976 24.9567 5.07874C22.7126 1.88976 19.0906 0 15.1614 0C8.58663 0 3.2323 5.30709 3.2323 11.8346C3.2323 12.5354 3.30316 13.2598 3.43702 13.9921C1.38978 14.811 0.00395203 16.811 0.00395203 19.0315C0.00395203 22.0315 2.46064 24.4724 5.48427 24.4724H12.9016V23.1811H5.48427C3.16931 23.1811 1.28742 21.315 1.28742 19.0236C1.28742 15.5433 4.94883 14.8583 4.94883 14.8583C4.94883 14.8583 4.50789 13.2756 4.50789 11.8268C4.50789 6.00787 9.27954 1.27559 15.1536 1.27559C21.5788 1.27559 24.3898 6.56693 24.3898 6.56693C24.3898 6.56693 25.7441 6.07087 27.2559 6.07087C31.7914 6.07087 35.4843 9.72441 35.4843 14.2205C35.4843 14.2598 35.4528 14.9449 35.4528 14.9449C35.4528 14.9449 38.7047 15.7087 38.7047 19.0157C38.7047 21.3071 36.8228 23.1732 34.5079 23.1732H26.4528V24.4646H34.5158C37.5394 24.4646 39.9961 22.0236 39.9961 19.0236C40.004 16.8898 38.7284 14.9528 36.7756 14.0787Z" fill="white" stroke="white"/>
<path d="M27.752 7.7323V9.02364C30.2402 9.02364 32.2716 11.0473 32.2716 13.5276H33.5551C33.5551 10.3307 30.9488 7.7323 27.752 7.7323Z" fill="white" stroke="white"/>
<path d="M30.6811 25.7638H22.8386L26.437 18.0394H18.1772L11.3661 32.2047H16.4528L13.7205 40L30.6811 25.7638ZM13.4134 30.9134L18.9882 19.3228H24.4134L20.8071 27.0472H27.1378L16.4843 35.9921L18.2638 30.9134H13.4134Z" fill="white" stroke="white"/>
</g>
<defs>
<clipPath id="clip0">
<rect width="40" height="40" fill="white"/>
</clipPath>
</defs>
</svg>
